# xmcd
#
# Track frame offsets:
#  150
#  17157
#  37515
#  53754
#  74712
#  95108
#  120446
#  142622
#  157256
#  176977
#
# Disc length: 2595 seconds
#
# Revision: 2
# Processed by: cddbd v1.5.1PL0 Copyright (c) Steve Scherf et al.
# Submitted via: Collectorz.com_Music_Collector 6.9
#
DISCID=850a210a
DTITLE=Harper - Down to the Rhythm
DYEAR=2005
DGENRE=Blues -  Blues Harmonica
TTITLE0=Down To The Rhythm
TTITLE1=Big Brown Land
TTITLE2=Last Cup of Coffee
TTITLE3=Something Happened Here Last Night
TTITLE4=Gimmie The Money
TTITLE5=I'll Follow You
TTITLE6=I've Been Waiting
TTITLE7=Air
TTITLE8=I Believed In You
TTITLE9=The World Starts Loving You
EXTD=
EXTT0=
EXTT1=
EXTT2=
EXTT3=
EXTT4=
EXTT5=
EXTT6=
EXTT7=
EXTT8=
EXTT9=
PLAYORDER=
